<svg width="229" height="82" viewBox="0 0 229 82" fill="none" xmlns="http://www.w3.org/2000/svg">
<path d="M134.05 18H139.55V32.75L146.55 18H152.05L145.5 30.85L152.15 53H146.4L141.75 37.4L139.55 41.85V53H134.05V18ZM154.753 18H160.253V53H154.753V18ZM164.372 18H169.872V32.75L176.872 18H182.372L175.822 30.85L182.472 53H176.722L172.072 37.4L169.872 41.85V53H164.372V18ZM189.325 18H196.775L202.475 53H196.975L195.975 46.05V46.15H189.725L188.725 53H183.625L189.325 18ZM195.325 41.4L192.875 24.1H192.775L190.375 41.4H195.325ZM204.307 23.3H202.507V18H207.807V22.75L204.757 29.3H202.207L204.307 23.3ZM219.081 53.5C216.414 53.5 214.398 52.75 213.031 51.25C211.664 49.7167 210.981 47.5333 210.981 44.7V42.7H216.181V45.1C216.181 47.3667 217.131 48.5 219.031 48.5C219.964 48.5 220.664 48.2333 221.131 47.7C221.631 47.1333 221.881 46.2333 221.881 45C221.881 43.5333 221.548 42.25 220.881 41.15C220.214 40.0167 218.981 38.6667 217.181 37.1C214.914 35.1 213.331 33.3 212.431 31.7C211.531 30.0667 211.081 28.2333 211.081 26.2C211.081 23.4333 211.781 21.3 213.181 19.8C214.581 18.2667 216.614 17.5 219.281 17.5C221.914 17.5 223.898 18.2667 225.231 19.8C226.598 21.3 227.281 23.4667 227.281 26.3V27.75H222.081V25.95C222.081 24.75 221.848 23.8833 221.381 23.35C220.914 22.7833 220.231 22.5 219.331 22.5C217.498 22.5 216.581 23.6167 216.581 25.85C216.581 27.1167 216.914 28.3 217.581 29.4C218.281 30.5 219.531 31.8333 221.331 33.4C223.631 35.4 225.214 37.2167 226.081 38.85C226.948 40.4833 227.381 42.4 227.381 44.6C227.381 47.4667 226.664 49.6667 225.231 51.2C223.831 52.7333 221.781 53.5 219.081 53.5Z" fill="#E43424"/>
<path d="M132.811 67V59.126H138.209V60.458H134.401V62.3218H137.688V63.6538H134.401V67H132.811ZM139.203 63.1113C139.203 62.3092 139.323 61.6361 139.562 61.0918C139.742 60.6908 139.985 60.3309 140.293 60.0122C140.604 59.6935 140.945 59.4572 141.313 59.3032C141.804 59.0955 142.37 58.9917 143.011 58.9917C144.171 58.9917 145.098 59.3516 145.793 60.0713C146.491 60.791 146.84 61.7918 146.84 63.0737C146.84 64.3449 146.495 65.3403 145.804 66.0601C145.113 66.7762 144.189 67.1343 143.032 67.1343C141.861 67.1343 140.93 66.778 140.239 66.0654C139.548 65.3493 139.203 64.3646 139.203 63.1113ZM140.841 63.0576C140.841 63.9492 141.047 64.626 141.458 65.0879C141.87 65.5462 142.393 65.7754 143.027 65.7754C143.661 65.7754 144.18 65.548 144.584 65.0933C144.993 64.6349 145.197 63.9492 145.197 63.0361C145.197 62.1338 144.998 61.4606 144.601 61.0166C144.207 60.5726 143.682 60.3506 143.027 60.3506C142.372 60.3506 141.843 60.5762 141.442 61.0273C141.041 61.4749 140.841 62.1517 140.841 63.0576ZM147.764 63.1113C147.764 62.3092 147.884 61.6361 148.124 61.0918C148.303 60.6908 148.547 60.3309 148.854 60.0122C149.166 59.6935 149.506 59.4572 149.875 59.3032C150.366 59.0955 150.931 58.9917 151.572 58.9917C152.732 58.9917 153.66 59.3516 154.354 60.0713C155.053 60.791 155.402 61.7918 155.402 63.0737C155.402 64.3449 155.056 65.3403 154.365 66.0601C153.674 66.7762 152.75 67.1343 151.594 67.1343C150.423 67.1343 149.492 66.778 148.801 66.0654C148.11 65.3493 147.764 64.3646 147.764 63.1113ZM149.402 63.0576C149.402 63.9492 149.608 64.626 150.02 65.0879C150.432 65.5462 150.955 65.7754 151.588 65.7754C152.222 65.7754 152.741 65.548 153.146 65.0933C153.554 64.6349 153.758 63.9492 153.758 63.0361C153.758 62.1338 153.56 61.4606 153.162 61.0166C152.768 60.5726 152.244 60.3506 151.588 60.3506C150.933 60.3506 150.405 60.5762 150.004 61.0273C149.603 61.4749 149.402 62.1517 149.402 63.0576ZM156.643 59.126H159.548C160.204 59.126 160.703 59.1761 161.047 59.2764C161.509 59.4124 161.904 59.6541 162.234 60.0015C162.563 60.3488 162.814 60.7749 162.986 61.2798C163.158 61.7811 163.244 62.4006 163.244 63.1382C163.244 63.7863 163.163 64.3449 163.002 64.814C162.805 65.3869 162.524 65.8506 162.159 66.2051C161.883 66.4736 161.511 66.6831 161.042 66.8335C160.691 66.9445 160.222 67 159.634 67H156.643V59.126ZM158.232 60.458V65.6733H159.419C159.863 65.6733 160.184 65.6483 160.381 65.5981C160.639 65.5337 160.852 65.4245 161.02 65.2705C161.192 65.1165 161.332 64.8641 161.439 64.5132C161.546 64.1587 161.6 63.6771 161.6 63.0684C161.6 62.4596 161.546 61.9924 161.439 61.6665C161.332 61.3407 161.181 61.0864 160.988 60.9038C160.794 60.7212 160.549 60.5977 160.252 60.5332C160.03 60.4831 159.595 60.458 158.947 60.458H158.232ZM167.659 67V59.126H170.21C171.177 59.126 171.807 59.1654 172.101 59.2441C172.552 59.3623 172.93 59.6201 173.234 60.0176C173.538 60.4115 173.69 60.9217 173.69 61.5483C173.69 62.0317 173.603 62.4382 173.427 62.7676C173.252 63.097 173.028 63.3566 172.756 63.5464C172.487 63.7326 172.213 63.8561 171.934 63.917C171.555 63.9922 171.005 64.0298 170.285 64.0298H169.249V67H167.659ZM169.249 60.458V62.6924H170.119C170.745 62.6924 171.164 62.6512 171.375 62.5688C171.587 62.4865 171.751 62.3576 171.87 62.1821C171.991 62.0067 172.052 61.8026 172.052 61.5698C172.052 61.2834 171.968 61.047 171.8 60.8608C171.632 60.6746 171.418 60.5583 171.161 60.5117C170.971 60.4759 170.59 60.458 170.017 60.458H169.249ZM175.001 67V59.126H178.347C179.189 59.126 179.799 59.1976 180.179 59.3408C180.562 59.4805 180.868 59.7311 181.097 60.0928C181.326 60.4544 181.441 60.868 181.441 61.3335C181.441 61.9243 181.267 62.4131 180.92 62.7998C180.573 63.1829 180.053 63.4246 179.362 63.5249C179.706 63.7254 179.989 63.9456 180.211 64.1855C180.437 64.4255 180.739 64.8516 181.119 65.4639L182.08 67H180.179L179.029 65.2866C178.621 64.6743 178.342 64.2894 178.191 64.1318C178.041 63.9707 177.882 63.8615 177.713 63.8042C177.545 63.7433 177.278 63.7129 176.913 63.7129H176.591V67H175.001ZM176.591 62.4561H177.767C178.53 62.4561 179.006 62.4238 179.196 62.3594C179.386 62.2949 179.534 62.1839 179.642 62.0264C179.749 61.8688 179.803 61.6719 179.803 61.4355C179.803 61.1706 179.731 60.9575 179.588 60.7964C179.448 60.6317 179.25 60.5278 178.992 60.4849C178.863 60.467 178.476 60.458 177.832 60.458H176.591V62.4561ZM182.623 63.1113C182.623 62.3092 182.743 61.6361 182.982 61.0918C183.161 60.6908 183.405 60.3309 183.713 60.0122C184.024 59.6935 184.365 59.4572 184.733 59.3032C185.224 59.0955 185.79 58.9917 186.431 58.9917C187.591 58.9917 188.518 59.3516 189.213 60.0713C189.911 60.791 190.26 61.7918 190.26 63.0737C190.26 64.3449 189.915 65.3403 189.224 66.0601C188.533 66.7762 187.609 67.1343 186.452 67.1343C185.281 67.1343 184.35 66.778 183.659 66.0654C182.968 65.3493 182.623 64.3646 182.623 63.1113ZM184.261 63.0576C184.261 63.9492 184.467 64.626 184.878 65.0879C185.29 65.5462 185.813 65.7754 186.447 65.7754C187.081 65.7754 187.6 65.548 188.004 65.0933C188.413 64.6349 188.617 63.9492 188.617 63.0361C188.617 62.1338 188.418 61.4606 188.021 61.0166C187.627 60.5726 187.102 60.3506 186.447 60.3506C185.792 60.3506 185.263 60.5762 184.862 61.0273C184.461 61.4749 184.261 62.1517 184.261 63.0576ZM191.501 59.126H194.407C195.062 59.126 195.562 59.1761 195.905 59.2764C196.367 59.4124 196.763 59.6541 197.092 60.0015C197.422 60.3488 197.672 60.7749 197.844 61.2798C198.016 61.7811 198.102 62.4006 198.102 63.1382C198.102 63.7863 198.021 64.3449 197.86 64.814C197.663 65.3869 197.382 65.8506 197.017 66.2051C196.741 66.4736 196.369 66.6831 195.9 66.8335C195.549 66.9445 195.08 67 194.493 67H191.501V59.126ZM193.091 60.458V65.6733H194.278C194.722 65.6733 195.042 65.6483 195.239 65.5981C195.497 65.5337 195.71 65.4245 195.878 65.2705C196.05 65.1165 196.19 64.8641 196.297 64.5132C196.405 64.1587 196.458 63.6771 196.458 63.0684C196.458 62.4596 196.405 61.9924 196.297 61.6665C196.19 61.3407 196.04 61.0864 195.846 60.9038C195.653 60.7212 195.408 60.5977 195.11 60.5332C194.888 60.4831 194.453 60.458 193.805 60.458H193.091ZM199.445 59.126H201.035V63.3906C201.035 64.0674 201.054 64.506 201.094 64.7065C201.162 65.0288 201.323 65.2884 201.577 65.4854C201.835 65.6787 202.186 65.7754 202.63 65.7754C203.081 65.7754 203.421 65.6841 203.65 65.5015C203.88 65.3153 204.017 65.0879 204.064 64.8193C204.111 64.5508 204.134 64.105 204.134 63.4819V59.126H205.724V63.2617C205.724 64.207 205.681 64.8748 205.595 65.2651C205.509 65.6554 205.349 65.9849 205.117 66.2534C204.888 66.522 204.58 66.7368 204.193 66.8979C203.806 67.0555 203.301 67.1343 202.678 67.1343C201.926 67.1343 201.355 67.0483 200.965 66.8765C200.578 66.701 200.272 66.4754 200.046 66.1997C199.821 65.9204 199.672 65.6286 199.601 65.3242C199.497 64.873 199.445 64.207 199.445 63.3262V59.126ZM212.443 64.105L213.984 64.5938C213.748 65.4531 213.354 66.0923 212.803 66.5112C212.255 66.9266 211.558 67.1343 210.713 67.1343C209.668 67.1343 208.808 66.778 208.135 66.0654C207.462 65.3493 207.125 64.3717 207.125 63.1328C207.125 61.8223 207.464 60.8053 208.141 60.082C208.817 59.3551 209.707 58.9917 210.81 58.9917C211.773 58.9917 212.556 59.2764 213.157 59.8457C213.515 60.1823 213.784 60.6657 213.963 61.2959L212.389 61.6719C212.296 61.2637 212.101 60.9414 211.804 60.7051C211.51 60.4688 211.152 60.3506 210.729 60.3506C210.146 60.3506 209.671 60.5601 209.306 60.979C208.944 61.3979 208.764 62.0765 208.764 63.0146C208.764 64.0101 208.943 64.7191 209.301 65.1416C209.659 65.5641 210.124 65.7754 210.697 65.7754C211.12 65.7754 211.483 65.6411 211.788 65.3726C212.092 65.104 212.31 64.6815 212.443 64.105ZM217.126 67V60.458H214.79V59.126H221.047V60.458H218.716V67H217.126ZM221.676 64.438L223.223 64.2876C223.316 64.8068 223.504 65.1882 223.787 65.4316C224.073 65.6751 224.458 65.7969 224.941 65.7969C225.453 65.7969 225.838 65.6895 226.096 65.4746C226.358 65.2562 226.488 65.002 226.488 64.7119C226.488 64.5257 226.433 64.3682 226.322 64.2393C226.214 64.1068 226.025 63.9922 225.752 63.8955C225.566 63.8311 225.142 63.7165 224.479 63.5518C223.627 63.3405 223.029 63.0809 222.686 62.7729C222.202 62.3397 221.96 61.8115 221.96 61.1885C221.96 60.7874 222.073 60.4132 222.299 60.0659C222.528 59.715 222.856 59.4482 223.282 59.2656C223.711 59.083 224.229 58.9917 224.834 58.9917C225.822 58.9917 226.565 59.2083 227.063 59.6416C227.564 60.0749 227.827 60.6532 227.853 61.3765L226.263 61.4463C226.195 61.0417 226.048 60.7516 225.822 60.5762C225.6 60.3971 225.265 60.3076 224.818 60.3076C224.356 60.3076 223.994 60.4025 223.733 60.5923C223.565 60.714 223.48 60.877 223.48 61.0811C223.48 61.2673 223.559 61.4266 223.717 61.5591C223.917 61.7274 224.404 61.9028 225.178 62.0854C225.951 62.2681 226.522 62.4578 226.891 62.6548C227.264 62.8481 227.554 63.1149 227.761 63.4551C227.972 63.7917 228.078 64.2088 228.078 64.7065C228.078 65.1577 227.953 65.5802 227.702 65.9741C227.451 66.368 227.097 66.6616 226.639 66.855C226.18 67.0448 225.609 67.1396 224.925 67.1396C223.93 67.1396 223.165 66.9105 222.632 66.4521C222.098 65.9902 221.78 65.3188 221.676 64.438Z" fill="#E43424"/>
<path d="M11.5445 64.6386C9.55799 64.8707 7.82521 64.402 6.34614 63.2324C4.90404 62.0921 4.08241 60.6611 3.88124 58.9395C3.67619 57.1848 3.90048 55.5141 4.55408 53.9275C5.20382 52.3079 6.21474 50.7634 7.58683 49.2943C8.99203 47.8212 10.8878 46.5258 13.2742 45.4079C15.6567 44.2569 18.3486 43.4558 21.3498 43.0044C22.5978 38.4622 23.5871 33.43 24.3178 27.9079C24.3277 27.7054 24.3152 27.4551 24.2804 27.1572C24.2417 26.8261 24.0433 26.564 23.6851 26.3709L23.6271 25.8743C26.4125 25.0119 28.9805 24.4433 31.3312 24.1686L34.3341 24.0191C35.3729 25.4415 36.1005 27.5043 36.5171 30.2076C36.9298 32.8777 37.5415 37.5382 38.3522 44.1891C42.1097 45.3273 45.4024 46.9394 48.2303 49.0253C48.1481 49.4712 47.9336 49.9325 47.5866 50.4093C47.2688 50.8492 46.956 51.1878 46.6481 51.4251L46.1863 51.7811C44.0086 50.0891 41.5492 48.7153 38.8081 47.6596C39.0948 49.539 39.4626 51.1069 39.9115 52.3633C40.6226 54.4281 41.2927 55.4237 41.9217 55.3502C42.2859 55.3076 42.7067 55.1746 43.1839 54.951L44.1552 56.8008C42.041 58.5245 39.9409 59.5082 37.8551 59.7519C34.4119 60.1543 32.3866 57.7565 31.7792 52.5585L31.019 46.0528C28.6356 45.7607 26.4927 45.6588 24.59 45.7469C21.6207 57.6721 17.2722 63.9693 11.5445 64.6386ZM20.4623 46.1789C16.7559 46.914 13.7965 48.5854 11.5842 51.1931C9.37194 53.8009 8.38379 56.1145 8.61978 58.1341C8.85577 60.1537 9.75181 61.0726 11.3079 60.8907C14.4863 60.5194 17.5377 55.6154 20.4623 46.1789ZM28.4184 28.5362C28.3483 28.5108 28.2139 28.5098 28.0153 28.533C27.8166 28.5562 27.6861 28.5882 27.6238 28.6291C27.6199 31.1801 26.8567 35.8502 25.3344 42.6395C26.9683 42.5492 28.7336 42.5779 30.6302 42.7254C29.6785 34.5808 28.9412 29.8511 28.4184 28.5362ZM49.1606 58.4309C48.0349 58.5624 47.0469 58.2919 46.1964 57.6194C45.3791 56.943 44.8911 55.9261 44.7324 54.5687C44.57 53.1782 44.8685 48.6966 45.6281 41.1239C46.4169 33.5143 46.6198 28.0706 46.2368 24.7929L45.6835 22.6426C48.1614 21.4469 50.5261 20.7175 52.7774 20.4544C53.1627 20.8793 53.423 21.6711 53.5584 22.8299C53.8679 25.4785 53.6233 30.7089 52.8246 38.5211C52.0551 46.2962 51.7439 50.8129 51.8909 52.071C52.0341 53.296 52.2546 53.8911 52.5526 53.8563L55.8839 52.2085L56.9809 53.8422C55.9597 54.8677 54.6824 55.8559 53.1491 56.807C51.6489 57.7542 50.3194 58.2955 49.1606 58.4309ZM66.5276 36.6178C66.6901 38.0084 66.5236 40.4609 66.0281 43.9755C65.5288 47.457 65.3411 49.7274 65.4649 50.7869C65.5848 51.8133 65.7938 52.309 66.0917 52.2742C66.2904 52.251 67.0151 51.8475 68.2659 51.0637L68.8271 50.6961L69.8744 52.3356C69.6074 52.6353 69.2488 53.0128 68.7986 53.4681C68.3484 53.9234 67.4852 54.578 66.209 55.4319C64.929 56.2527 63.7095 56.7308 62.5508 56.8662C61.392 57.0016 60.4409 56.7604 59.6975 56.1425C58.9502 55.4915 58.5069 54.57 58.3677 53.3781C58.2245 52.1531 58.3869 49.9528 58.8548 46.777C59.3189 43.5681 59.4967 41.5002 59.3884 40.5731C59.2259 39.1826 58.6427 37.9251 57.6387 36.8007L57.1221 36.257L57.0964 35.6056C58.7931 34.9039 61.6113 34.3229 65.5512 33.8625C66.0396 34.3088 66.3651 35.2273 66.5276 36.6178ZM59.9028 29.0355C59.1632 28.4507 58.7296 27.612 58.602 26.5194C58.4743 25.4269 58.8091 24.4145 59.6063 23.4823C60.4366 22.5463 61.4477 22.0087 62.6396 21.8694C63.8315 21.7301 64.7972 21.9529 65.5367 22.5377C66.2762 23.1224 66.7098 23.9611 66.8375 25.0537C66.9613 26.1131 66.5915 27.1128 65.7281 28.0527C64.8978 28.9887 63.9032 29.5245 62.7445 29.6599C61.5857 29.7953 60.6384 29.5871 59.9028 29.0355ZM73.3478 55.1515L72.4042 55.2618C72.2224 53.7057 72.3377 50.6718 72.7502 46.1601C73.1958 41.6445 73.3837 39.0888 73.3141 38.4928C73.1864 37.4003 72.5875 36.2956 71.5173 35.179L71.0007 34.6352L70.975 33.9838C72.7048 33.2783 75.5396 32.6953 79.4795 32.235C79.9756 32.7475 80.3273 33.7468 80.5345 35.2328C83.1557 32.678 85.4596 31.2845 87.4461 31.0524C88.6379 30.9131 89.6299 31.2167 90.4219 31.9631C91.247 32.7057 91.733 33.7061 91.88 34.9642C92.0232 36.1892 91.892 38.3691 91.4864 41.5041C91.0808 44.639 90.94 46.7362 91.0638 47.7956C91.1837 48.822 91.3761 49.3197 91.6409 49.2887C91.8396 49.2655 92.4981 48.8698 93.6165 48.1014L94.1776 47.7338L95.2747 49.3675C95.0076 49.6672 94.649 50.0447 94.1988 50.5001C93.7486 50.9554 92.8854 51.61 91.6092 52.4639C90.3623 53.2808 89.2091 53.7511 88.1496 53.8749C85.7327 54.1574 84.3638 52.9246 84.0426 50.1766C83.9072 49.0178 84.0219 46.8398 84.3866 43.6425C84.7844 40.4414 84.9311 38.3939 84.8267 37.4999C84.7222 36.606 84.3886 36.192 83.8257 36.2577C82.8656 36.3699 81.7386 36.9211 80.4448 37.9113C80.4112 38.4857 80.2543 40.0143 79.9738 42.4969C79.4224 47.8303 79.2725 51.573 79.5239 53.725C78.4193 54.324 76.3606 54.7994 73.3478 55.1515ZM110.993 59.4614C109.865 60.4323 108.759 61.1656 107.676 61.6613C106.597 62.1901 105.527 62.5165 104.468 62.6403C103.408 62.7641 102.513 62.5667 101.781 62.0481C101.049 61.5295 100.618 60.7074 100.486 59.5817C100.358 58.4892 100.948 57.3631 102.256 56.2035C103.563 55.0439 104.891 54.2007 106.239 53.6741L108.317 52.9279L108.597 48.8679C106.847 50.549 105.078 51.4941 103.291 51.703C101.536 51.908 100.016 51.3976 98.732 50.1717C97.4808 48.9419 96.6811 46.8372 96.3329 43.8575C95.8764 39.9507 96.3746 36.6036 97.8276 33.8161C99.2767 30.9956 101.441 29.417 104.322 29.0804C105.944 28.8908 107.596 29.1005 109.278 29.7094C110.897 28.9161 112.683 28.4054 114.637 28.1771L115.685 28.1049C115.831 28.4906 115.947 29.0477 116.032 29.776C116.372 32.6895 116.093 39.3502 115.195 49.7582C115.075 51.8865 114.625 53.7848 113.847 55.4531C113.073 57.1545 112.121 58.4906 110.993 59.4614ZM106.899 31.7493C105.475 31.9157 104.485 33.206 103.928 35.6203C103.367 38.0015 103.252 40.5991 103.58 43.4133C103.905 46.1944 104.697 47.5114 105.955 47.3644C106.783 47.2677 107.723 46.839 108.775 46.0785C109.052 40.408 109.178 35.7451 109.154 32.0899C108.18 31.801 107.429 31.6874 106.899 31.7493ZM102.709 59.2213C102.783 59.8503 103.184 60.1223 103.912 60.0372C104.673 59.9482 105.451 59.4211 106.244 58.4558C107.041 57.5236 107.633 56.4141 108.02 55.1272C106.943 55.3873 105.764 55.9278 104.484 56.7485C103.208 57.6024 102.616 58.4267 102.709 59.2213Z" fill="#18B332"/>
</svg>
